<?xml version="1.0" standalone="no"?>
<!DOCTYPE svg PUBLIC "-//W3C//DTD SVG 20010904//EN"
 "http://www.w3.org/TR/2001/REC-SVG-20010904/DTD/svg10.dtd">
<svg version="1.0" xmlns="http://www.w3.org/2000/svg"
 width="176.000000pt" height="186.000000pt" viewBox="0 0 176.000000 186.000000"
 preserveAspectRatio="xMidYMid meet">

<g transform="translate(0.000000,186.000000) scale(0.100000,-0.100000)"
fill="#000000" stroke="none">
<path d="M1410 1670 l0 -50 55 0 55 0 0 50 0 50 -55 0 -55 0 0 -50z"/>
<path d="M1202 1582 c-9 -6 -12 -28 -10 -68 l3 -59 65 0 65 0 0 65 0 65 -55 3
c-30 1 -61 -2 -68 -6z"/>
<path d="M1460 1400 l0 -70 70 0 71 0 -3 68 -3 67 -67 3 -68 3 0 -71z"/>
<path d="M1000 1410 l0 -51 48 3 47 3 0 45 0 45 -47 3 -48 3 0 -51z"/>
<path d="M227 1324 c-4 -4 -7 -195 -7 -425 l0 -419 23 -4 c12 -3 65 -10 117
-15 155 -17 308 -65 392 -122 24 -16 46 -29 51 -29 4 0 7 184 7 409 0 393 -1
409 -20 434 -42 54 -174 110 -340 145 -113 24 -213 35 -223 26z"/>
<path d="M1212 1253 l3 -78 78 -3 77 -3 0 81 0 80 -80 0 -81 0 3 -77z"/>
<path d="M991 1238 c-24 -12 -61 -38 -82 -58 l-39 -37 0 -416 c0 -230 2 -417
5 -417 2 0 25 13 51 30 97 61 276 112 442 126 67 6 85 11 93 26 6 12 9 96 8
216 -2 192 -8 248 -19 187 l-5 -30 -140 -3 c-162 -3 -165 -2 -165 85 l0 53
-60 0 -61 0 3 61 3 62 42 1 c24 1 48 7 53 12 6 6 10 35 8 65 l-3 54 -45 3
c-31 2 -59 -4 -89 -20z"/>
<path d="M122 1228 c-18 -18 -17 -921 1 -936 6 -5 64 -13 127 -17 116 -7 356
-31 419 -42 19 -3 52 -22 74 -42 35 -32 46 -36 92 -36 46 0 57 4 94 38 22 20
47 37 54 37 6 0 59 7 117 15 58 8 181 20 275 26 93 6 176 16 183 21 9 8 12 84
10 337 l-3 326 -22 3 -23 3 0 -289 c0 -226 -3 -292 -13 -300 -7 -6 -74 -16
-148 -22 -252 -20 -381 -47 -461 -95 -31 -19 -59 -35 -62 -35 -3 0 -25 13 -48
30 -67 47 -249 83 -526 106 -45 3 -85 11 -90 18 -4 6 -9 202 -12 435 -3 280
-9 426 -15 428 -6 2 -16 -2 -23 -9z"/>
<path d="M1447 1163 c-4 -3 -7 -26 -7 -50 l0 -43 50 0 50 0 0 50 0 50 -43 0
c-24 0 -47 -3 -50 -7z"/>
<path d="M1237 1054 c-4 -4 -7 -29 -7 -56 l0 -49 48 3 47 3 0 50 0 50 -40 3
c-23 2 -44 0 -48 -4z"/>
</g>
</svg>
